<svg xmlns="http://www.w3.org/2000/svg" version="1.1" xmlns:xlink="http://www.w3.org/1999/xlink" xmlns:svgjs="http://svgjs.dev/svgjs" width="1440" height="560" preserveAspectRatio="none" viewBox="0 0 1440 560">
    <g mask="url(&quot;#SvgjsMask1010&quot;)" fill="none">
        <path d="M1196.9 211.3a55.42 55.42 0 1 0-76.39 80.31z" stroke="rgba(234, 179, 8, 0.16)"></path>
        <path d="M777.17 245.3 a5.21 5.21 0 1 0 10.42 0 a5.21 5.21 0 1 0 -10.42 0z" stroke="rgba(234, 179, 8, 0.16)"></path>
        <path d="M805.64 552.63 a9.36 9.36 0 1 0 18.72 0 a9.36 9.36 0 1 0 -18.72 0z" fill="rgba(234, 179, 8, 0.16)"></path>
        <path d="M987.68 73.39 a15.99 15.99 0 1 0 31.98 0 a15.99 15.99 0 1 0 -31.98 0z" stroke="rgba(234, 179, 8, 0.16)"></path>
        <path d="M117.96 207.34a12.66 12.66 0 1 0 11.1 22.76z" fill="rgba(234, 179, 8, 0.16)"></path>
        <path d="M1233.73 152.94 a3.55 3.55 0 1 0 7.1 0 a3.55 3.55 0 1 0 -7.1 0z" stroke="rgba(234, 179, 8, 0.16)"></path>
        <path d="M42.03 453.93a7.46 7.46 0 1 0 12.36-8.34z" stroke="rgba(234, 179, 8, 0.16)"></path>
        <path d="M358.98 520.01 a0.26 0.26 0 1 0 0.52 0 a0.26 0.26 0 1 0 -0.52 0z" stroke="rgba(234, 179, 8, 0.16)"></path>
        <path d="M1054.76 351.66L1081.42 351.66L1081.42 399.81L1054.76 399.81z" fill="rgba(234, 179, 8, 0.16)"></path>
        <path d="M1247.51 496.8a23 23 0 1 0-5.48-45.67z" stroke="rgba(234, 179, 8, 0.16)"></path>
        <path d="M714.27 276.65L757.26 276.65L757.26 319.64L714.27 319.64z" stroke="rgba(234, 179, 8, 0.16)"></path>
        <path d="M799.81 430.33L821.87 430.33L821.87 432.23L799.81 432.23z" stroke="rgba(234, 179, 8, 0.16)"></path>
        <path d="M811.2 71.03L845.09 71.03L845.09 104.92L811.2 104.92z" fill="rgba(234, 179, 8, 0.16)"></path>
        <path d="M93.26 412.18a7.31 7.31 0 1 0-14.61 0.65z" stroke="rgba(234, 179, 8, 0.16)"></path>
        <path d="M547.84 223.99 a27.1 27.1 0 1 0 54.2 0 a27.1 27.1 0 1 0 -54.2 0z" stroke="rgba(234, 179, 8, 0.16)"></path>
        <path d="M170.63 336.01a23.22 23.22 0 1 0 12.22-44.8z" fill="rgba(234, 179, 8, 0.16)"></path>
        <path d="M1012.6 466.8L1050.22 466.8L1050.22 504.42L1012.6 504.42z" stroke="rgba(234, 179, 8, 0.16)"></path>
        <path d="M349.35 398.22L403.61 398.22L403.61 430.7L349.35 430.7z" stroke="rgba(234, 179, 8, 0.16)"></path>
        <path d="M879.32 53.52L923.61 53.52L923.61 67.65L879.32 67.65z" stroke="rgba(234, 179, 8, 0.16)"></path>
        <path d="M790.61 311.99 a5.27 5.27 0 1 0 10.54 0 a5.27 5.27 0 1 0 -10.54 0z" stroke="rgba(234, 179, 8, 0.16)"></path>
        <path d="M1153.53 315.58a6.92 6.92 0 1 0-13.04 4.63z" stroke="rgba(234, 179, 8, 0.16)"></path>
        <path d="M748.97 305.37L772.4 305.37L772.4 319.34L748.97 319.34z" stroke="rgba(234, 179, 8, 0.16)"></path>
        <path d="M1187.15 544.72L1242.64 544.72L1242.64 563.71L1187.15 563.71z" fill="rgba(234, 179, 8, 0.16)"></path>
        <path d="M908.86 384.63 a54.91 54.91 0 1 0 109.82 0 a54.91 54.91 0 1 0 -109.82 0z" stroke="rgba(234, 179, 8, 0.16)"></path>
        <path d="M1292.59 491.16L1302.58 491.16L1302.58 501.15L1292.59 501.15z" fill="rgba(234, 179, 8, 0.16)"></path>
        <path d="M970.19 474.75L1021.96 474.75L1021.96 526.52L970.19 526.52z" fill="rgba(234, 179, 8, 0.16)"></path>
        <path d="M355.56 368.91L405.79 368.91L405.79 385.37L355.56 385.37z" stroke="rgba(234, 179, 8, 0.16)"></path>
        <path d="M1311.2 304.74 a45.76 45.76 0 1 0 91.52 0 a45.76 45.76 0 1 0 -91.52 0z" stroke="rgba(234, 179, 8, 0.16)"></path>
        <path d="M163.18 476.17L167.1 476.17L167.1 480.09L163.18 480.09z" stroke="rgba(234, 179, 8, 0.16)"></path>
        <path d="M708.38 340.39L736.4 340.39L736.4 368.41L708.38 368.41z" stroke="rgba(234, 179, 8, 0.16)"></path>
        <path d="M829.11 36.56L855.12 36.56L855.12 62.57L829.11 62.57z" stroke="rgba(234, 179, 8, 0.16)"></path>
        <path d="M1074.87 180.14L1097.09 180.14L1097.09 202.36L1074.87 202.36z" stroke="rgba(234, 179, 8, 0.16)"></path>
        <path d="M360.37 9.42a0.33 0.33 0 1 0-0.29-0.59z" fill="rgba(234, 179, 8, 0.16)"></path>
    </g>
    <defs>
        <mask id="SvgjsMask1010">
            <rect width="1440" height="560" fill="#ffffff"></rect>
        </mask>
    </defs>
</svg>